<?xml version="1.0" encoding="UTF-8"?>
<svg id="Layer_2" data-name="Layer 2" xmlns="http://www.w3.org/2000/svg" viewBox="0 0 299.94 299.94">
  <defs>
    <style>
      .cls-1 {
        fill: #fff;
        stroke-width: 0px;
      }
    </style>
  </defs>
  <g id="Layer_1-2" data-name="Layer 1">
    <g>
      <path class="cls-1" d="m149.97,5.04C69.93,5.04,5.04,69.93,5.04,149.97s64.89,144.93,144.93,144.93,144.93-64.89,144.93-144.93S230.02,5.04,149.97,5.04Zm-39.83,209.49h-33.05v-100.9h33.05v100.9Zm0-112.89h-33.05v-28.22h33.05v28.22Zm126.25,112.89h-33v-53.92c.65-11.8-9.17-19.71-16.83-18.83-4.2.48-18.07,2.2-20.83,20.89v51.86h-33v-98.89h31.23v16.1c13.9-18.42,26.6-18.42,39.51-18.42,15.13,0,25.17,9.43,29.8,19.12,2.23,4.65,3.13,6.22,3.13,19.76v62.34Z"/>
      <path class="cls-1" d="m299.94,299.94H0V0h299.94v299.94Zm-250.94-49h201.94V49H49v201.94Z"/>
    </g>
  </g>
</svg>