<?xml version="1.0" encoding="UTF-8"?>
<svg id="Layer_2" data-name="Layer 2" xmlns="http://www.w3.org/2000/svg" viewBox="0 0 299.94 299.94">
  <defs>
    <style>
      .cls-1 {
        fill: #fff;
        stroke-width: 0px;
      }
    </style>
  </defs>
  <g id="Layer_1-2" data-name="Layer 1">
    <g>
      <g>
        <path class="cls-1" d="m149.97,5.04C69.93,5.04,5.04,69.93,5.04,149.97s64.89,144.93,144.93,144.93,144.93-64.89,144.93-144.93S230.01,5.04,149.97,5.04Zm81.15,140.04c-.12.92-.31,1.84-.34,2.76-.35,9.1-.43,18.22-1.07,27.31-.46,6.6-1.86,13.1-4.63,19.2-3,6.61-7.77,10.7-15.35,11-7.01.28-14.01,1.05-21.03,1.12-21.47.21-42.95.41-64.42.19-12.27-.12-24.54-.97-36.8-1.72-2.11-.13-4.36-1.08-6.17-2.23-4.74-3.03-7.04-7.84-8.6-13.06-2.81-9.4-3.9-19.07-3.88-28.8.04-12.07.48-24.15,1.16-36.21.42-7.44,2.21-14.63,5.84-21.3,2.85-5.25,7.18-8.03,12.97-8.37,9.83-.59,19.68-.92,29.52-1.39.85-.04,1.69-.26,2.53-.4h58.38c.71.13,1.42.35,2.13.39,9.84.47,19.69.94,29.54,1.37,5.22.22,9.12,2.7,11.93,6.95,1.14,1.73,2.1,3.62,2.87,5.55,3.51,8.85,4.32,18.21,4.9,27.59.19,3.08.35,6.16.53,9.24v.81Z"/>
        <g id="rRa9zr.tif">
          <path class="cls-1" d="m130.65,119.83v60.28c15.63-10.07,30.92-19.92,46.64-30.04-15.73-10.2-30.97-20.08-46.64-30.24Z"/>
        </g>
      </g>
      <path class="cls-1" d="m299.94,299.94H0V0h299.94v299.94Zm-250.94-49h201.94V49H49v201.94Z"/>
    </g>
  </g>
</svg>