<?xml version="1.0" encoding="UTF-8"?>
<svg id="Layer_2" data-name="Layer 2" xmlns="http://www.w3.org/2000/svg" viewBox="0 0 299.94 299.94">
  <defs>
    <style>
      .cls-1 {
        fill: #fff;
        stroke-width: 0px;
      }
    </style>
  </defs>
  <g id="Layer_2-2" data-name="Layer 2">
    <g>
      <path class="cls-1" d="m299.94,299.94H0V0h299.94v299.94Zm-250.94-49h201.94V49H49v201.94Z"/>
      <g>
        <path class="cls-1" d="m213.34,130.42c-.16-6.65-.14-13.32-1.29-19.92-1.99-11.52-9.7-19.69-21.07-22.26-7.06-1.59-14.25-1.52-21.4-1.62-13.06-.17-26.12-.15-39.18,0-6.65.07-13.34.02-19.92,1.3-11.31,2.2-18.86,8.59-21.96,19.9-1.71,6.23-1.71,12.63-1.83,18.99-.2,10.57-.19,21.14-.16,31.71.03,9.6-.19,19.22,1.03,28.77,1.63,12.7,8.8,21.57,21.54,24.45,7.06,1.59,14.25,1.5,21.41,1.59,12.94.17,25.89.15,38.84,0,6.65-.07,13.33-.05,19.92-1.28,9.2-1.71,16.32-6.3,20.38-14.99,2.3-4.94,3.02-10.24,3.3-15.62.54-10.44.46-20.9.43-31.36,0-6.56.12-13.12-.03-19.67Zm-63.58,59.31c-21.83.04-39.88-18.16-39.58-40.34.3-21.58,18.25-39.48,40.41-39.21,21.47.26,39.11,17.99,39.11,39.79s-17.66,39.71-39.95,39.76Zm41.47-71.71c-5.17-.09-9.39-4.39-9.31-9.46.09-5.18,4.27-9.22,9.51-9.18,5.23.04,9.17,4.12,9.13,9.46-.04,5.06-4.32,9.28-9.34,9.18Z"/>
        <path class="cls-1" d="m149.89,175.74c-14.16-.04-25.74-11.66-25.73-25.8.01-14.22,11.69-25.82,25.93-25.77,14.13.06,25.7,11.74,25.64,25.89-.06,14.15-11.71,25.73-25.85,25.68Z"/>
        <path class="cls-1" d="m149.97,5.04C69.93,5.04,5.04,69.93,5.04,149.97s64.89,144.93,144.93,144.93,144.93-64.89,144.93-144.93S230.02,5.04,149.97,5.04Zm77.24,169.31c-.12,8.22-.38,16.47-3.17,24.38-5.24,14.88-15.83,23.62-31.05,26.87-8.95,1.92-18.09,1.7-27.17,1.74-13.45.06-26.91.08-40.36-.12-8.17-.12-16.36-.39-24.22-3.16-14.94-5.27-23.65-15.89-26.95-31.19-1.5-6.95-1.59-14.03-1.65-21.07-.12-15.43-.12-30.87.06-46.3.1-8.17.38-16.36,3.14-24.22,5.25-14.94,15.86-23.72,31.16-26.96,8.95-1.89,18.09-1.62,27.17-1.74,5.26-.07,10.51-.01,15.77-.01,10.46.03,20.91-.12,31.36.37,9.17.43,18.07,1.96,25.99,6.94,10.06,6.32,15.96,15.55,18.3,27.1,1.81,8.97,1.68,18.09,1.72,27.18.06,13.4.08,26.8-.12,40.2Z"/>
      </g>
    </g>
  </g>
</svg>