<svg width="23" height="17" viewBox="0 0 23 17" fill="none" xmlns="http://www.w3.org/2000/svg">
<path d="M20.1008 0.121094H1.93643C0.87016 0.121094 0 0.98457 0 2.04409V14.8578C0 15.913 0.865802 16.7794 1.93643 16.7794H20.1008C21.1642 16.7794 22.0373 15.9203 22.0373 14.8578V2.04409C22.0373 0.988894 21.1715 0.122535 20.1008 0.122535V0.121094ZM19.8336 1.40261L11.0593 10.1094L2.21099 1.40261H19.8336ZM1.29144 14.5926V2.30213L7.5104 8.41998L1.29144 14.5926ZM2.20518 15.4993L8.4285 9.32382L10.609 11.4688C10.8618 11.7168 11.2685 11.7168 11.5198 11.4674L13.6466 9.35697L19.835 15.4979H2.20373L2.20518 15.4993ZM20.7473 14.5926L14.5588 8.45169L20.7473 2.31078V14.594V14.5926Z" fill="#231F20"/>
</svg>
